<svg xmlns="http://www.w3.org/2000/svg" xmlns:xlink="http://www.w3.org/1999/xlink" xmlns:lucid="lucid" width="1580" height="1300.83"><g transform="translate(-120 0.8333333333333712)" lucid:page-tab-id="u-9Xwi5.lnSY"><path d="M0 0h1760v1360H0z" fill="#fff"/><path d="M160 203.5c0-2.76 2.24-5 5-5h310c2.76 0 5 2.24 5 5v222c0 2.76-2.24 5-5 5H165c-2.76 0-5-2.24-5-5z" fill="#fff"/><path d="M160 198.5h320v40H160z" fill="#ccc"/><path d="M160 203.5c0-2.76 2.24-5 5-5h310c2.76 0 5 2.24 5 5v222c0 2.76-2.24 5-5 5H165c-2.76 0-5-2.24-5-5zM160 238.5h320M320 238.5v192" stroke="#000" fill="none"/><use xlink:href="#a" transform="matrix(1,0,0,1,170,198.5) translate(0 23.6)"/><use xlink:href="#b" transform="matrix(1,0,0,1,165,241) translate(0 17.1)"/><use xlink:href="#c" transform="matrix(1,0,0,1,325,241) translate(0 17.1)"/><use xlink:href="#d" transform="matrix(1,0,0,1,325,241) translate(23.95 17.1)"/><use xlink:href="#e" transform="matrix(1,0,0,1,325,241) translate(53.95 17.1)"/><use xlink:href="#f" transform="matrix(1,0,0,1,325,241) translate(86.85 17.1)"/><use xlink:href="#g" transform="matrix(1,0,0,1,165,273) translate(0 17.1)"/><use xlink:href="#c" transform="matrix(1,0,0,1,325,273) translate(0 17.1)"/><use xlink:href="#d" transform="matrix(1,0,0,1,325,273) translate(23.95 17.1)"/><use xlink:href="#e" transform="matrix(1,0,0,1,325,273) translate(53.95 17.1)"/><use xlink:href="#h" transform="matrix(1,0,0,1,325,273) translate(86.85 17.1)"/><use xlink:href="#i" transform="matrix(1,0,0,1,165,305) translate(0 17.1)"/><use xlink:href="#j" transform="matrix(1,0,0,1,325,305) translate(0 17.1)"/><use xlink:href="#k" transform="matrix(1,0,0,1,165,337) translate(0 17.1)"/><use xlink:href="#j" transform="matrix(1,0,0,1,325,337) translate(0 17.1)"/><use xlink:href="#l" transform="matrix(1,0,0,1,165,369) translate(0 17.1)"/><use xlink:href="#j" transform="matrix(1,0,0,1,325,369) translate(0 17.1)"/><use xlink:href="#m" transform="matrix(1,0,0,1,165,401) translate(0 17.1)"/><use xlink:href="#j" transform="matrix(1,0,0,1,325,401) translate(0 17.1)"/><path d="M1295 543.25c0-2.76 2.24-5 5-5h340c2.76 0 5 2.24 5 5v147c0 2.76-2.24 5-5 5h-340c-2.76 0-5-2.24-5-5z" fill="#fff"/><path d="M1295 538.25h350v40h-350z" fill="#ccc"/><path d="M1295 543.25c0-2.76 2.24-5 5-5h340c2.76 0 5 2.24 5 5v147c0 2.76-2.24 5-5 5h-340c-2.76 0-5-2.24-5-5zM1295 578.25h350M1470 578.25v117" stroke="#000" fill="none"/><use xlink:href="#n" transform="matrix(1,0,0,1,1305,538.25) translate(0 23.6)"/><use xlink:href="#o" transform="matrix(1,0,0,1,1305,538.25) translate(5 23.6)"/><use xlink:href="#p" transform="matrix(1,0,0,1,1300,580.75) translate(0 27.6)"/><use xlink:href="#c" transform="matrix(1,0,0,1,1475,580.75) translate(0 27.6)"/><use xlink:href="#d" transform="matrix(1,0,0,1,1475,580.75) translate(23.95 27.6)"/><use xlink:href="#e" transform="matrix(1,0,0,1,1475,580.75) translate(53.95 27.6)"/><use xlink:href="#f" transform="matrix(1,0,0,1,1475,580.75) translate(86.85 27.6)"/><use xlink:href="#q" transform="matrix(1,0,0,1,1300,633.75) translate(0 17.1)"/><use xlink:href="#c" transform="matrix(1,0,0,1,1475,633.75) translate(0 17.1)"/><use xlink:href="#d" transform="matrix(1,0,0,1,1475,633.75) translate(23.95 17.1)"/><use xlink:href="#e" transform="matrix(1,0,0,1,1475,633.75) translate(53.95 17.1)"/><use xlink:href="#h" transform="matrix(1,0,0,1,1475,633.75) translate(86.85 17.1)"/><use xlink:href="#r" transform="matrix(1,0,0,1,1300,665.75) translate(0 17.1)"/><use xlink:href="#j" transform="matrix(1,0,0,1,1475,665.75) translate(0 17.1)"/><path d="M140 521.75c0-2.76 2.24-5 5-5h350c2.76 0 5 2.24 5 5v147c0 2.76-2.24 5-5 5H145c-2.76 0-5-2.24-5-5z" fill="#fff"/><path d="M140 516.75h360v40H140z" fill="#ccc"/><path d="M140 521.75c0-2.76 2.24-5 5-5h350c2.76 0 5 2.24 5 5v147c0 2.76-2.24 5-5 5H145c-2.76 0-5-2.24-5-5zM140 556.75h360M320 556.75v117" stroke="#000" fill="none"/><use xlink:href="#s" transform="matrix(1,0,0,1,150,516.75) translate(0 23.6)"/><use xlink:href="#t" transform="matrix(1,0,0,1,145,559.25) translate(0 27.6)"/><use xlink:href="#c" transform="matrix(1,0,0,1,325,559.25) translate(0 27.6)"/><use xlink:href="#d" transform="matrix(1,0,0,1,325,559.25) translate(23.95 27.6)"/><use xlink:href="#e" transform="matrix(1,0,0,1,325,559.25) translate(53.95 27.6)"/><use xlink:href="#f" transform="matrix(1,0,0,1,325,559.25) translate(86.85 27.6)"/><use xlink:href="#b" transform="matrix(1,0,0,1,145,612.25) translate(0 17.1)"/><use xlink:href="#c" transform="matrix(1,0,0,1,325,612.25) translate(0 17.1)"/><use xlink:href="#d" transform="matrix(1,0,0,1,325,612.25) translate(23.95 17.1)"/><use xlink:href="#e" transform="matrix(1,0,0,1,325,612.25) translate(53.95 17.1)"/><use xlink:href="#h" transform="matrix(1,0,0,1,325,612.25) translate(86.85 17.1)"/><use xlink:href="#m" transform="matrix(1,0,0,1,145,644.25) translate(0 17.1)"/><use xlink:href="#u" transform="matrix(1,0,0,1,325,644.25) translate(0 17.1)"/><use xlink:href="#d" transform="matrix(1,0,0,1,325,644.25) translate(96.80000000000001 17.1)"/><use xlink:href="#v" transform="matrix(1,0,0,1,325,644.25) translate(126.80000000000001 17.1)"/><path d="M140 1021c0-2.76 2.24-5 5-5h390c2.76 0 5 2.24 5 5v254c0 2.76-2.24 5-5 5H145c-2.76 0-5-2.24-5-5z" fill="#fff"/><path d="M140 1016h400v40H140z" fill="#ccc"/><path d="M140 1021c0-2.76 2.24-5 5-5h390c2.76 0 5 2.24 5 5v254c0 2.76-2.24 5-5 5H145c-2.76 0-5-2.24-5-5zM140 1056h400M340 1056v224" stroke="#000" fill="none"/><use xlink:href="#w" transform="matrix(1,0,0,1,150,1016) translate(0 23.6)"/><use xlink:href="#x" transform="matrix(1,0,0,1,145,1058.5) translate(0 17.1)"/><use xlink:href="#c" transform="matrix(1,0,0,1,345,1058.5) translate(0 17.1)"/><use xlink:href="#d" transform="matrix(1,0,0,1,345,1058.5) translate(23.95 17.1)"/><use xlink:href="#e" transform="matrix(1,0,0,1,345,1058.5) translate(53.95 17.1)"/><use xlink:href="#f" transform="matrix(1,0,0,1,345,1058.5) translate(86.85 17.1)"/><use xlink:href="#i" transform="matrix(1,0,0,1,145,1090.5) translate(0 17.1)"/><use xlink:href="#y" transform="matrix(1,0,0,1,345,1090.5) translate(0 17.1)"/><use xlink:href="#d" transform="matrix(1,0,0,1,345,1090.5) translate(96.80000000000001 17.1)"/><use xlink:href="#v" transform="matrix(1,0,0,1,345,1090.5) translate(126.80000000000001 17.1)"/><use xlink:href="#k" transform="matrix(1,0,0,1,145,1122.5) translate(0 17.1)"/><use xlink:href="#y" transform="matrix(1,0,0,1,345,1122.5) translate(0 17.1)"/><use xlink:href="#d" transform="matrix(1,0,0,1,345,1122.5) translate(96.80000000000001 17.1)"/><use xlink:href="#v" transform="matrix(1,0,0,1,345,1122.5) translate(126.80000000000001 17.1)"/><use xlink:href="#l" transform="matrix(1,0,0,1,145,1154.5) translate(0 17.1)"/><use xlink:href="#y" transform="matrix(1,0,0,1,345,1154.5) translate(0 17.1)"/><use xlink:href="#d" transform="matrix(1,0,0,1,345,1154.5) translate(96.80000000000001 17.1)"/><use xlink:href="#v" transform="matrix(1,0,0,1,345,1154.5) translate(126.80000000000001 17.1)"/><use xlink:href="#z" transform="matrix(1,0,0,1,145,1186.5) translate(0 17.1)"/><use xlink:href="#y" transform="matrix(1,0,0,1,345,1186.5) translate(0 17.1)"/><use xlink:href="#d" transform="matrix(1,0,0,1,345,1186.5) translate(96.80000000000001 17.1)"/><use xlink:href="#v" transform="matrix(1,0,0,1,345,1186.5) translate(126.80000000000001 17.1)"/><use xlink:href="#A" transform="matrix(1,0,0,1,145,1218.5) translate(0 17.1)"/><use xlink:href="#B" transform="matrix(1,0,0,1,345,1218.5) translate(0 17.1)"/><use xlink:href="#d" transform="matrix(1,0,0,1,345,1218.5) translate(40 17.1)"/><use xlink:href="#v" transform="matrix(1,0,0,1,345,1218.5) translate(70 17.1)"/><use xlink:href="#C" transform="matrix(1,0,0,1,145,1250.5) translate(0 17.1)"/><use xlink:href="#y" transform="matrix(1,0,0,1,345,1250.5) translate(0 17.1)"/><use xlink:href="#d" transform="matrix(1,0,0,1,345,1250.5) translate(96.80000000000001 17.1)"/><use xlink:href="#v" transform="matrix(1,0,0,1,345,1250.5) translate(126.80000000000001 17.1)"/><path d="M620.5 225c0-2.76 2.24-5 5-5H1006c2.76 0 5 2.24 5 5v147c0 2.76-2.24 5-5 5H625.5c-2.76 0-5-2.24-5-5z" fill="#fff"/><path d="M620.5 220H1011v40H620.5z" fill="#ccc"/><path d="M620.5 225c0-2.76 2.24-5 5-5H1006c2.76 0 5 2.24 5 5v147c0 2.76-2.24 5-5 5H625.5c-2.76 0-5-2.24-5-5zM620.5 260H1011M815.75 260v117" stroke="#000" fill="none"/><use xlink:href="#D" transform="matrix(1,0,0,1,630.5,220) translate(0 23.6)"/><use xlink:href="#g" transform="matrix(1,0,0,1,625.5,262.5) translate(0 27.6)"/><use xlink:href="#c" transform="matrix(1,0,0,1,820.75,262.5) translate(0 27.6)"/><use xlink:href="#d" transform="matrix(1,0,0,1,820.75,262.5) translate(23.95 27.6)"/><use xlink:href="#e" transform="matrix(1,0,0,1,820.75,262.5) translate(53.95 27.6)"/><use xlink:href="#f" transform="matrix(1,0,0,1,820.75,262.5) translate(86.85 27.6)"/><use xlink:href="#E" transform="matrix(1,0,0,1,625.5,315.5) translate(0 17.1)"/><use xlink:href="#c" transform="matrix(1,0,0,1,820.75,315.5) translate(0 17.1)"/><use xlink:href="#d" transform="matrix(1,0,0,1,820.75,315.5) translate(23.95 17.1)"/><use xlink:href="#e" transform="matrix(1,0,0,1,820.75,315.5) translate(53.95 17.1)"/><use xlink:href="#h" transform="matrix(1,0,0,1,820.75,315.5) translate(86.85 17.1)"/><use xlink:href="#m" transform="matrix(1,0,0,1,625.5,347.5) translate(0 17.1)"/><use xlink:href="#j" transform="matrix(1,0,0,1,820.75,347.5) translate(0 17.1)"/><path d="M1260 210.5c0-2.76 2.24-5 5-5h410c2.76 0 5 2.24 5 5v126c0 2.76-2.24 5-5 5h-410c-2.76 0-5-2.24-5-5z" fill="#fff"/><path d="M1260 205.5h420v40h-420z" fill="#ccc"/><path d="M1260 210.5c0-2.76 2.24-5 5-5h410c2.76 0 5 2.24 5 5v126c0 2.76-2.24 5-5 5h-410c-2.76 0-5-2.24-5-5zM1260 245.5h420M1470 245.5v96" stroke="#000" fill="none"/><use xlink:href="#F" transform="matrix(1,0,0,1,1270,205.5) translate(0 23.6)"/><use xlink:href="#q" transform="matrix(1,0,0,1,1265,248) translate(0 17.1)"/><use xlink:href="#c" transform="matrix(1,0,0,1,1475,248) translate(0 17.1)"/><use xlink:href="#d" transform="matrix(1,0,0,1,1475,248) translate(23.95 17.1)"/><use xlink:href="#e" transform="matrix(1,0,0,1,1475,248) translate(53.95 17.1)"/><use xlink:href="#f" transform="matrix(1,0,0,1,1475,248) translate(86.85 17.1)"/><use xlink:href="#G" transform="matrix(1,0,0,1,1265,280) translate(0 17.1)"/><use xlink:href="#H" transform="matrix(1,0,0,1,1475,280) translate(0 17.1)"/><use xlink:href="#d" transform="matrix(1,0,0,1,1475,280) translate(96.80000000000001 17.1)"/><use xlink:href="#v" transform="matrix(1,0,0,1,1475,280) translate(126.80000000000001 17.1)"/><use xlink:href="#I" transform="matrix(1,0,0,1,1265,312) translate(0 17.1)"/><use xlink:href="#c" transform="matrix(1,0,0,1,1475,312) translate(0 17.1)"/><use xlink:href="#d" transform="matrix(1,0,0,1,1475,312) translate(23.95 17.1)"/><use xlink:href="#v" transform="matrix(1,0,0,1,1475,312) translate(53.95 17.1)"/><path d="M1470 362v156.34" stroke="#000" fill="none"/><path d="M1460 362h20M1470 342v20M1460 537.53l10-20 10 20M1470 537.53v-20" stroke="#000" fill="#fff"/><path d="M620.5 24.17c0-2.76 2.24-5 5-5h410c2.76 0 5 2.24 5 5v94c0 2.76-2.24 5-5 5h-410c-2.76 0-5-2.24-5-5z" fill="#fff"/><path d="M620.5 19.17h420v40h-420z" fill="#ccc"/><path d="M620.5 24.17c0-2.76 2.24-5 5-5h410c2.76 0 5 2.24 5 5v94c0 2.76-2.24 5-5 5h-410c-2.76 0-5-2.24-5-5zM620.5 59.17h420M830.5 59.17v64" stroke="#000" fill="none"/><use xlink:href="#J" transform="matrix(1,0,0,1,630.5,19.16666666666663) translate(0 23.6)"/><use xlink:href="#E" transform="matrix(1,0,0,1,625.5,61.66666666666663) translate(0 17.1)"/><use xlink:href="#c" transform="matrix(1,0,0,1,835.5,61.66666666666663) translate(0 17.1)"/><use xlink:href="#d" transform="matrix(1,0,0,1,835.5,61.66666666666663) translate(23.95 17.1)"/><use xlink:href="#e" transform="matrix(1,0,0,1,835.5,61.66666666666663) translate(53.95 17.1)"/><use xlink:href="#f" transform="matrix(1,0,0,1,835.5,61.66666666666663) translate(86.85 17.1)"/><use xlink:href="#G" transform="matrix(1,0,0,1,625.5,93.66666666666663) translate(0 17.1)"/><use xlink:href="#H" transform="matrix(1,0,0,1,835.5,93.66666666666663) translate(0 17.1)"/><use xlink:href="#d" transform="matrix(1,0,0,1,835.5,93.66666666666663) translate(96.80000000000001 17.1)"/><use xlink:href="#v" transform="matrix(1,0,0,1,835.5,93.66666666666663) translate(126.80000000000001 17.1)"/><path d="M600 75.17h-8c-6.63 0-12 5.37-12 12v72.4c0 6.64 5.37 12 12 12h447.5c6.63 0 12 5.4 12 12v90.93c0 6.63-5.37 12-12 12h-8.6" stroke="#000" fill="none"/><path d="M600 65.17v20M620 75.17h-20M1011.72 276.5l20 10-20 10M1011.72 286.5h20" stroke="#000" fill="#fff"/><path d="M320 451v45.84" stroke="#000" fill="none"/><path d="M310 451h20M320 431v20M310 516.03l10-20 10 20M320 516.03v-20" stroke="#000" fill="#fff"/><path d="M670.5 500.25c0-2.76 2.24-5 5-5H1195c2.76 0 5 2.24 5 5v190c0 2.76-2.24 5-5 5H675.5c-2.76 0-5-2.24-5-5z" fill="#fff"/><path d="M670.5 495.25H1200v40H670.5z" fill="#ccc"/><path d="M670.5 500.25c0-2.76 2.24-5 5-5H1195c2.76 0 5 2.24 5 5v190c0 2.76-2.24 5-5 5H675.5c-2.76 0-5-2.24-5-5zM670.5 535.25H1200M935.25 535.25v160" stroke="#000" fill="none"/><g><use xlink:href="#K" transform="matrix(1,0,0,1,680.5,495.25) translate(0 23.6)"/></g><g><use xlink:href="#L" transform="matrix(1,0,0,1,675.5,537.75) translate(0 17.1)"/></g><g><use xlink:href="#M" transform="matrix(1,0,0,1,940.25,537.75) translate(0 17.1)"/><use xlink:href="#d" transform="matrix(1,0,0,1,940.25,537.75) translate(38.9 17.1)"/><use xlink:href="#e" transform="matrix(1,0,0,1,940.25,537.75) translate(68.9 17.1)"/><use xlink:href="#N" transform="matrix(1,0,0,1,940.25,537.75) translate(101.80000000000001 17.1)"/><use xlink:href="#O" transform="matrix(1,0,0,1,940.25,537.75) translate(195.70000000000002 17.1)"/></g><g><use xlink:href="#P" transform="matrix(1,0,0,1,675.5,569.75) translate(0 17.1)"/></g><g><use xlink:href="#M" transform="matrix(1,0,0,1,940.25,569.75) translate(0 17.1)"/><use xlink:href="#d" transform="matrix(1,0,0,1,940.25,569.75) translate(38.9 17.1)"/><use xlink:href="#e" transform="matrix(1,0,0,1,940.25,569.75) translate(68.9 17.1)"/><use xlink:href="#N" transform="matrix(1,0,0,1,940.25,569.75) translate(101.80000000000001 17.1)"/><use xlink:href="#O" transform="matrix(1,0,0,1,940.25,569.75) translate(195.70000000000002 17.1)"/></g><g><use xlink:href="#Q" transform="matrix(1,0,0,1,675.5,601.75) translate(0 17.1)"/></g><g><use xlink:href="#B" transform="matrix(1,0,0,1,940.25,601.75) translate(0 17.1)"/><use xlink:href="#d" transform="matrix(1,0,0,1,940.25,601.75) translate(40 17.1)"/><use xlink:href="#e" transform="matrix(1,0,0,1,940.25,601.75) translate(70 17.1)"/><use xlink:href="#N" transform="matrix(1,0,0,1,940.25,601.75) translate(102.9 17.1)"/><use xlink:href="#O" transform="matrix(1,0,0,1,940.25,601.75) translate(196.8 17.1)"/></g><g><use xlink:href="#p" transform="matrix(1,0,0,1,675.5,633.75) translate(0 17.1)"/></g><g><use xlink:href="#c" transform="matrix(1,0,0,1,940.25,633.75) translate(0 17.1)"/><use xlink:href="#d" transform="matrix(1,0,0,1,940.25,633.75) translate(23.95 17.1)"/><use xlink:href="#e" transform="matrix(1,0,0,1,940.25,633.75) translate(53.95 17.1)"/><use xlink:href="#h" transform="matrix(1,0,0,1,940.25,633.75) translate(86.85 17.1)"/></g><g><use xlink:href="#t" transform="matrix(1,0,0,1,675.5,665.75) translate(0 17.1)"/></g><g><use xlink:href="#c" transform="matrix(1,0,0,1,940.25,665.75) translate(0 17.1)"/><use xlink:href="#d" transform="matrix(1,0,0,1,940.25,665.75) translate(23.95 17.1)"/><use xlink:href="#e" transform="matrix(1,0,0,1,940.25,665.75) translate(53.95 17.1)"/><use xlink:href="#h" transform="matrix(1,0,0,1,940.25,665.75) translate(86.85 17.1)"/></g><path d="M520.5 583.25h8c6.63 0 12-5.37 12-12v-104.5c0-6.63 5.37-12 12-12h370.75c6.63 0 12 5.37 12 12v8.6" stroke="#000" fill="none"/><path d="M520.5 593.25v-20M500.5 583.25h20M925.25 494.53l10-20 10 20M935.25 494.53v-20" stroke="#000" fill="#fff"/><path d="M620.5 865c0-2.76 2.24-5 5-5H1195c2.76 0 5 2.24 5 5v190c0 2.76-2.24 5-5 5H625.5c-2.76 0-5-2.24-5-5z" fill="#fff"/><path d="M620.5 860H1200v40H620.5z" fill="#ccc"/><path d="M620.5 865c0-2.76 2.24-5 5-5H1195c2.76 0 5 2.24 5 5v190c0 2.76-2.24 5-5 5H625.5c-2.76 0-5-2.24-5-5zM620.5 900H1200M910.25 900v160" stroke="#000" fill="none"/><g><use xlink:href="#R" transform="matrix(1,0,0,1,630.5,860) translate(0 23.6)"/></g><g><use xlink:href="#S" transform="matrix(1,0,0,1,625.5,902.5) translate(0 17.1)"/></g><g><use xlink:href="#c" transform="matrix(1,0,0,1,915.25,902.5) translate(0 17.1)"/><use xlink:href="#d" transform="matrix(1,0,0,1,915.25,902.5) translate(23.95 17.1)"/><use xlink:href="#e" transform="matrix(1,0,0,1,915.25,902.5) translate(53.95 17.1)"/><use xlink:href="#f" transform="matrix(1,0,0,1,915.25,902.5) translate(86.85 17.1)"/></g><g><use xlink:href="#x" transform="matrix(1,0,0,1,625.5,934.5) translate(0 17.1)"/></g><g><use xlink:href="#c" transform="matrix(1,0,0,1,915.25,934.5) translate(0 17.1)"/><use xlink:href="#d" transform="matrix(1,0,0,1,915.25,934.5) translate(23.95 17.1)"/><use xlink:href="#e" transform="matrix(1,0,0,1,915.25,934.5) translate(53.95 17.1)"/><use xlink:href="#h" transform="matrix(1,0,0,1,915.25,934.5) translate(86.85 17.1)"/></g><g><use xlink:href="#L" transform="matrix(1,0,0,1,625.5,966.5) translate(0 17.1)"/></g><g><use xlink:href="#M" transform="matrix(1,0,0,1,915.25,966.5) translate(0 17.1)"/><use xlink:href="#d" transform="matrix(1,0,0,1,915.25,966.5) translate(38.9 17.1)"/><use xlink:href="#e" transform="matrix(1,0,0,1,915.25,966.5) translate(68.9 17.1)"/><use xlink:href="#N" transform="matrix(1,0,0,1,915.25,966.5) translate(101.80000000000001 17.1)"/><use xlink:href="#T" transform="matrix(1,0,0,1,915.25,966.5) translate(195.70000000000002 17.1)"/></g><g><use xlink:href="#P" transform="matrix(1,0,0,1,625.5,998.5) translate(0 17.1)"/></g><g><use xlink:href="#M" transform="matrix(1,0,0,1,915.25,998.5) translate(0 17.1)"/><use xlink:href="#d" transform="matrix(1,0,0,1,915.25,998.5) translate(38.9 17.1)"/><use xlink:href="#e" transform="matrix(1,0,0,1,915.25,998.5) translate(68.9 17.1)"/><use xlink:href="#N" transform="matrix(1,0,0,1,915.25,998.5) translate(101.80000000000001 17.1)"/><use xlink:href="#T" transform="matrix(1,0,0,1,915.25,998.5) translate(195.70000000000002 17.1)"/></g><g><use xlink:href="#Q" transform="matrix(1,0,0,1,625.5,1030.5) translate(0 17.1)"/></g><g><use xlink:href="#B" transform="matrix(1,0,0,1,915.25,1030.5) translate(0 17.1)"/><use xlink:href="#d" transform="matrix(1,0,0,1,915.25,1030.5) translate(40 17.1)"/><use xlink:href="#e" transform="matrix(1,0,0,1,915.25,1030.5) translate(70 17.1)"/><use xlink:href="#N" transform="matrix(1,0,0,1,915.25,1030.5) translate(102.9 17.1)"/><use xlink:href="#T" transform="matrix(1,0,0,1,915.25,1030.5) translate(196.8 17.1)"/></g><path d="M560.5 1168.05h337.75c6.63 0 12-5.37 12-12v-76.14" stroke="#000" fill="none"/><path d="M560.5 1178.05v-20M540.5 1168.05h20M920.25 1060.72l-10 20-10-20M910.25 1060.72v20" stroke="#000" fill="#fff"/><path d="M935.25 715.75v49.88c0 6.62-5.37 12-12 12h-1c-6.63 0-12 5.37-12 12v50.46" stroke="#000" fill="none"/><path d="M925.25 715.75h20M935.25 695.75v20M900.25 859.28l10-20 10 20M910.25 859.28v-20" stroke="#000" fill="#fff"/><path d="M1274.5 604.75h-15c-6.63 0-12 5.37-12 12v50.5c0 6.63-5.37 12-12 12h-15.6" stroke="#000" fill="none"/><path d="M1274.5 594.75v20M1294.5 604.75h-20M1200.72 669.25l20 10-20 10M1200.72 679.25h20" stroke="#000" fill="#fff"/><path d="M600 286.47h-37.75c-6.63 0-12 5.37-12 12v8.03c0 6.63-5.37 12-12 12H499.9" stroke="#000" fill="none"/><path d="M600 276.47v20M620 286.47h-20M480.72 308.5l20 10-20 10M480.72 318.5h20" stroke="#000" fill="#fff"/><defs><path d="M185-189c-5-48-123-54-124 2 14 75 158 14 163 119 3 78-121 87-175 55-17-10-28-26-33-46l33-7c5 56 141 63 141-1 0-78-155-14-162-118-5-82 145-84 179-34 5 7 8 16 11 25" id="U"/><path d="M115-194c55 1 70 41 70 98S169 2 115 4C84 4 66-9 55-30l1 105H24l-1-265h31l2 30c10-21 28-34 59-34zm-8 174c40 0 45-34 45-75s-6-73-45-74c-42 0-51 32-51 76 0 43 10 73 51 73" id="V"/><path d="M100-194c63 0 86 42 84 106H49c0 40 14 67 53 68 26 1 43-12 49-29l28 8c-11 28-37 45-77 45C44 4 14-33 15-96c1-61 26-98 85-98zm52 81c6-60-76-77-97-28-3 7-6 17-6 28h103" id="W"/><path d="M141-36C126-15 110 5 73 4 37 3 15-17 15-53c-1-64 63-63 125-63 3-35-9-54-41-54-24 1-41 7-42 31l-33-3c5-37 33-52 76-52 45 0 72 20 72 64v82c-1 20 7 32 28 27v20c-31 9-61-2-59-35zM48-53c0 20 12 33 32 33 41-3 63-29 60-74-43 2-92-5-92 41" id="X"/><path d="M143 0L79-87 56-68V0H24v-261h32v163l83-92h37l-77 82L181 0h-38" id="Y"/><path d="M114-163C36-179 61-72 57 0H25l-1-190h30c1 12-1 29 2 39 6-27 23-49 58-41v29" id="Z"/><g id="a"><use transform="matrix(0.05,0,0,0.05,0,0)" xlink:href="#U"/><use transform="matrix(0.05,0,0,0.05,12,0)" xlink:href="#V"/><use transform="matrix(0.05,0,0,0.05,22,0)" xlink:href="#W"/><use transform="matrix(0.05,0,0,0.05,32,0)" xlink:href="#X"/><use transform="matrix(0.05,0,0,0.05,42,0)" xlink:href="#Y"/><use transform="matrix(0.05,0,0,0.05,51,0)" xlink:href="#W"/><use transform="matrix(0.05,0,0,0.05,61,0)" xlink:href="#Z"/></g><path d="M135-143c-3-34-86-38-87 0 15 53 115 12 119 90S17 21 10-45l28-5c4 36 97 45 98 0-10-56-113-15-118-90-4-57 82-63 122-42 12 7 21 19 24 35" id="aa"/><path d="M33 0v-248h34V0H33" id="ab"/><path d="M30-248c118-7 216 8 213 122C240-48 200 0 122 0H30v-248zM63-27c89 8 146-16 146-99s-60-101-146-95v194" id="ac"/><g id="b"><use transform="matrix(0.05,0,0,0.05,0,0)" xlink:href="#aa"/><use transform="matrix(0.05,0,0,0.05,9,0)" xlink:href="#V"/><use transform="matrix(0.05,0,0,0.05,19,0)" xlink:href="#W"/><use transform="matrix(0.05,0,0,0.05,29,0)" xlink:href="#X"/><use transform="matrix(0.05,0,0,0.05,39,0)" xlink:href="#Y"/><use transform="matrix(0.05,0,0,0.05,48,0)" xlink:href="#W"/><use transform="matrix(0.05,0,0,0.05,58,0)" xlink:href="#Z"/><use transform="matrix(0.05,0,0,0.05,63.95,0)" xlink:href="#ab"/><use transform="matrix(0.05,0,0,0.05,68.95,0)" xlink:href="#ac"/></g><path d="M24-231v-30h32v30H24zM24 0v-190h32V0H24" id="ad"/><path d="M117-194c89-4 53 116 60 194h-32v-121c0-31-8-49-39-48C34-167 62-67 57 0H25l-1-190h30c1 10-1 24 2 32 11-22 29-35 61-36" id="ae"/><path d="M59-47c-2 24 18 29 38 22v24C64 9 27 4 27-40v-127H5v-23h24l9-43h21v43h35v23H59v120" id="af"/><g id="c"><use transform="matrix(0.05,0,0,0.05,0,0)" xlink:href="#ad"/><use transform="matrix(0.05,0,0,0.05,3.95,0)" xlink:href="#ae"/><use transform="matrix(0.05,0,0,0.05,13.949999999999998,0)" xlink:href="#af"/></g><path d="M100-194c62-1 85 37 85 99 1 63-27 99-86 99S16-35 15-95c0-66 28-99 85-99zM99-20c44 1 53-31 53-75 0-43-8-75-51-75s-53 32-53 75 10 74 51 75" id="ag"/><g id="d"><use transform="matrix(0.05,0,0,0.05,0,0)" xlink:href="#ae"/><use transform="matrix(0.05,0,0,0.05,10,0)" xlink:href="#ag"/><use transform="matrix(0.05,0,0,0.05,20,0)" xlink:href="#af"/></g><path d="M84 4C-5 8 30-112 23-190h32v120c0 31 7 50 39 49 72-2 45-101 50-169h31l1 190h-30c-1-10 1-25-2-33-11 22-28 36-60 37" id="ah"/><path d="M24 0v-261h32V0H24" id="ai"/><g id="e"><use transform="matrix(0.05,0,0,0.05,0,0)" xlink:href="#ae"/><use transform="matrix(0.05,0,0,0.05,10,0)" xlink:href="#ah"/><use transform="matrix(0.05,0,0,0.05,20,0)" xlink:href="#ai"/><use transform="matrix(0.05,0,0,0.05,23.95,0)" xlink:href="#ai"/></g><path d="M87 75C49 33 22-17 22-94c0-76 28-126 65-167h31c-38 41-64 92-64 168S80 34 118 75H87" id="aj"/><path d="M30-248c87 1 191-15 191 75 0 78-77 80-158 76V0H30v-248zm33 125c57 0 124 11 124-50 0-59-68-47-124-48v98" id="ak"/><path d="M194 0L95-120 63-95V0H30v-248h33v124l119-124h40L117-140 236 0h-42" id="al"/><path d="M33-261c38 41 65 92 65 168S71 34 33 75H2C39 34 66-17 66-93S39-220 2-261h31" id="am"/><g id="f"><use transform="matrix(0.05,0,0,0.05,0,0)" xlink:href="#aj"/><use transform="matrix(0.05,0,0,0.05,5.95,0)" xlink:href="#ak"/><use transform="matrix(0.05,0,0,0.05,17.95,0)" xlink:href="#al"/><use transform="matrix(0.05,0,0,0.05,29.950000000000003,0)" xlink:href="#am"/></g><path d="M115-194c53 0 69 39 70 98 0 66-23 100-70 100C84 3 66-7 56-30L54 0H23l1-261h32v101c10-23 28-34 59-34zm-8 174c40 0 45-34 45-75 0-40-5-75-45-74-42 0-51 32-51 76 0 43 10 73 51 73" id="an"/><path d="M24-231v-30h32v30H24zM-9 49c24 4 33-6 33-30v-209h32V24c2 40-23 58-65 49V49" id="ao"/><path d="M96-169c-40 0-48 33-48 73s9 75 48 75c24 0 41-14 43-38l32 2c-6 37-31 61-74 61-59 0-76-41-82-99-10-93 101-131 147-64 4 7 5 14 7 22l-32 3c-4-21-16-35-41-35" id="ap"/><g id="g"><use transform="matrix(0.05,0,0,0.05,0,0)" xlink:href="#aa"/><use transform="matrix(0.05,0,0,0.05,9,0)" xlink:href="#ah"/><use transform="matrix(0.05,0,0,0.05,19,0)" xlink:href="#an"/><use transform="matrix(0.05,0,0,0.05,29,0)" xlink:href="#ao"/><use transform="matrix(0.05,0,0,0.05,32.95,0)" xlink:href="#W"/><use transform="matrix(0.05,0,0,0.05,42.95,0)" xlink:href="#ap"/><use transform="matrix(0.05,0,0,0.05,51.95,0)" xlink:href="#af"/><use transform="matrix(0.05,0,0,0.05,56.95,0)" xlink:href="#ab"/><use transform="matrix(0.05,0,0,0.05,61.95,0)" xlink:href="#ac"/></g><path d="M63-220v92h138v28H63V0H30v-248h175v28H63" id="aq"/><g id="h"><use transform="matrix(0.05,0,0,0.05,0,0)" xlink:href="#aj"/><use transform="matrix(0.05,0,0,0.05,5.95,0)" xlink:href="#aq"/><use transform="matrix(0.05,0,0,0.05,16.900000000000002,0)" xlink:href="#al"/><use transform="matrix(0.05,0,0,0.05,28.900000000000002,0)" xlink:href="#am"/></g><path d="M101-234c-31-9-42 10-38 44h38v23H63V0H32v-167H5v-23h27c-7-52 17-82 69-68v24" id="ar"/><path d="M190 0L58-211 59 0H30v-248h39L202-35l-2-213h31V0h-41" id="as"/><path d="M210-169c-67 3-38 105-44 169h-31v-121c0-29-5-50-35-48C34-165 62-65 56 0H25l-1-190h30c1 10-1 24 2 32 10-44 99-50 107 0 11-21 27-35 58-36 85-2 47 119 55 194h-31v-121c0-29-5-49-35-48" id="at"/><g id="i"><use transform="matrix(0.05,0,0,0.05,0,0)" xlink:href="#ar"/><use transform="matrix(0.05,0,0,0.05,5,0)" xlink:href="#ad"/><use transform="matrix(0.05,0,0,0.05,8.95,0)" xlink:href="#Z"/><use transform="matrix(0.05,0,0,0.05,14.899999999999999,0)" xlink:href="#aa"/><use transform="matrix(0.05,0,0,0.05,23.9,0)" xlink:href="#af"/><use transform="matrix(0.05,0,0,0.05,28.899999999999995,0)" xlink:href="#as"/><use transform="matrix(0.05,0,0,0.05,41.85,0)" xlink:href="#X"/><use transform="matrix(0.05,0,0,0.05,51.85,0)" xlink:href="#at"/><use transform="matrix(0.05,0,0,0.05,66.8,0)" xlink:href="#W"/></g><path d="M108 0H70L1-190h34L89-25l56-165h34" id="au"/><path d="M106-169C34-169 62-67 57 0H25v-261h32l-1 103c12-21 28-36 61-36 89 0 53 116 60 194h-32v-121c2-32-8-49-39-48" id="av"/><path d="M134-131c28 9 52 24 51 62-1 50-34 73-85 73S17-19 16-69c0-36 21-54 49-61-75-25-45-126 34-121 46 3 78 18 79 63 0 33-17 51-44 57zm-34-11c31 1 46-15 46-44 0-28-17-43-47-42-29 0-46 13-45 42 1 28 16 44 46 44zm1 122c35 0 51-18 51-52 0-30-18-46-53-46-33 0-51 17-51 47 0 34 19 51 53 51" id="aw"/><path d="M101-251c68 0 85 55 85 127S166 4 100 4C33 4 14-52 14-124c0-73 17-127 87-127zm-1 229c47 0 54-49 54-102s-4-102-53-102c-51 0-55 48-55 102 0 53 5 102 54 102" id="ax"/><g id="j"><use transform="matrix(0.05,0,0,0.05,0,0)" xlink:href="#au"/><use transform="matrix(0.05,0,0,0.05,9,0)" xlink:href="#X"/><use transform="matrix(0.05,0,0,0.05,19,0)" xlink:href="#Z"/><use transform="matrix(0.05,0,0,0.05,24.95,0)" xlink:href="#ap"/><use transform="matrix(0.05,0,0,0.05,33.95,0)" xlink:href="#av"/><use transform="matrix(0.05,0,0,0.05,43.95,0)" xlink:href="#X"/><use transform="matrix(0.05,0,0,0.05,53.95,0)" xlink:href="#Z"/><use transform="matrix(0.05,0,0,0.05,59.900000000000006,0)" xlink:href="#aj"/><use transform="matrix(0.05,0,0,0.05,65.85000000000001,0)" xlink:href="#aw"/><use transform="matrix(0.05,0,0,0.05,75.85000000000001,0)" xlink:href="#ax"/><use transform="matrix(0.05,0,0,0.05,85.85000000000001,0)" xlink:href="#am"/></g><g id="k"><use transform="matrix(0.05,0,0,0.05,0,0)" xlink:href="#ai"/><use transform="matrix(0.05,0,0,0.05,3.95,0)" xlink:href="#X"/><use transform="matrix(0.05,0,0,0.05,13.949999999999998,0)" xlink:href="#aa"/><use transform="matrix(0.05,0,0,0.05,22.95,0)" xlink:href="#af"/><use transform="matrix(0.05,0,0,0.05,27.950000000000003,0)" xlink:href="#as"/><use transform="matrix(0.05,0,0,0.05,40.9,0)" xlink:href="#X"/><use transform="matrix(0.05,0,0,0.05,50.9,0)" xlink:href="#at"/><use transform="matrix(0.05,0,0,0.05,65.85,0)" xlink:href="#W"/></g><g id="l"><use transform="matrix(0.05,0,0,0.05,0,0)" xlink:href="#W"/><use transform="matrix(0.05,0,0,0.05,10,0)" xlink:href="#at"/><use transform="matrix(0.05,0,0,0.05,24.950000000000003,0)" xlink:href="#X"/><use transform="matrix(0.05,0,0,0.05,34.95,0)" xlink:href="#ad"/><use transform="matrix(0.05,0,0,0.05,38.900000000000006,0)" xlink:href="#ai"/></g><g id="m"><use transform="matrix(0.05,0,0,0.05,0,0)" xlink:href="#af"/><use transform="matrix(0.05,0,0,0.05,5,0)" xlink:href="#ad"/><use transform="matrix(0.05,0,0,0.05,8.95,0)" xlink:href="#af"/><use transform="matrix(0.05,0,0,0.05,13.949999999999998,0)" xlink:href="#ai"/><use transform="matrix(0.05,0,0,0.05,17.9,0)" xlink:href="#W"/></g><path d="M233-177c-1 41-23 64-60 70L243 0h-38l-65-103H63V0H30v-248c88 3 205-21 203 71zM63-129c60-2 137 13 137-47 0-61-80-42-137-45v92" id="ay"/><g id="o"><use transform="matrix(0.05,0,0,0.05,0,0)" xlink:href="#ay"/><use transform="matrix(0.05,0,0,0.05,12.950000000000001,0)" xlink:href="#ag"/><use transform="matrix(0.05,0,0,0.05,22.950000000000003,0)" xlink:href="#ag"/><use transform="matrix(0.05,0,0,0.05,32.95,0)" xlink:href="#at"/></g><g id="p"><use transform="matrix(0.05,0,0,0.05,0,0)" xlink:href="#Z"/><use transform="matrix(0.05,0,0,0.05,5.95,0)" xlink:href="#ag"/><use transform="matrix(0.05,0,0,0.05,15.949999999999998,0)" xlink:href="#ag"/><use transform="matrix(0.05,0,0,0.05,25.950000000000003,0)" xlink:href="#at"/><use transform="matrix(0.05,0,0,0.05,40.9,0)" xlink:href="#ab"/><use transform="matrix(0.05,0,0,0.05,45.9,0)" xlink:href="#ac"/></g><path d="M212-179c-10-28-35-45-73-45-59 0-87 40-87 99 0 60 29 101 89 101 43 0 62-24 78-52l27 14C228-24 195 4 139 4 59 4 22-46 18-125c-6-104 99-153 187-111 19 9 31 26 39 46" id="az"/><path d="M177-190C167-65 218 103 67 71c-23-6-38-20-44-43l32-5c15 47 100 32 89-28v-30C133-14 115 1 83 1 29 1 15-40 15-95c0-56 16-97 71-98 29-1 48 16 59 35 1-10 0-23 2-32h30zM94-22c36 0 50-32 50-73 0-42-14-75-50-75-39 0-46 34-46 75s6 73 46 73" id="aA"/><path d="M179-190L93 31C79 59 56 82 12 73V49c39 6 53-20 64-50L1-190h34L92-34l54-156h33" id="aB"/><g id="q"><use transform="matrix(0.05,0,0,0.05,0,0)" xlink:href="#Z"/><use transform="matrix(0.05,0,0,0.05,5.95,0)" xlink:href="#ag"/><use transform="matrix(0.05,0,0,0.05,15.949999999999998,0)" xlink:href="#ag"/><use transform="matrix(0.05,0,0,0.05,25.950000000000003,0)" xlink:href="#at"/><use transform="matrix(0.05,0,0,0.05,40.9,0)" xlink:href="#az"/><use transform="matrix(0.05,0,0,0.05,53.85,0)" xlink:href="#X"/><use transform="matrix(0.05,0,0,0.05,63.85,0)" xlink:href="#af"/><use transform="matrix(0.05,0,0,0.05,68.85,0)" xlink:href="#W"/><use transform="matrix(0.05,0,0,0.05,78.85,0)" xlink:href="#aA"/><use transform="matrix(0.05,0,0,0.05,88.85,0)" xlink:href="#ag"/><use transform="matrix(0.05,0,0,0.05,98.85,0)" xlink:href="#Z"/><use transform="matrix(0.05,0,0,0.05,104.80000000000001,0)" xlink:href="#aB"/><use transform="matrix(0.05,0,0,0.05,113.80000000000001,0)" xlink:href="#ab"/><use transform="matrix(0.05,0,0,0.05,118.80000000000001,0)" xlink:href="#ac"/></g><g id="r"><use transform="matrix(0.05,0,0,0.05,0,0)" xlink:href="#ae"/><use transform="matrix(0.05,0,0,0.05,10,0)" xlink:href="#X"/><use transform="matrix(0.05,0,0,0.05,20,0)" xlink:href="#at"/><use transform="matrix(0.05,0,0,0.05,34.95,0)" xlink:href="#W"/></g><g id="s"><use transform="matrix(0.05,0,0,0.05,0,0)" xlink:href="#U"/><use transform="matrix(0.05,0,0,0.05,12,0)" xlink:href="#W"/><use transform="matrix(0.05,0,0,0.05,22,0)" xlink:href="#aa"/><use transform="matrix(0.05,0,0,0.05,31,0)" xlink:href="#aa"/><use transform="matrix(0.05,0,0,0.05,40,0)" xlink:href="#ad"/><use transform="matrix(0.05,0,0,0.05,43.95,0)" xlink:href="#ag"/><use transform="matrix(0.05,0,0,0.05,53.95,0)" xlink:href="#ae"/></g><g id="t"><use transform="matrix(0.05,0,0,0.05,0,0)" xlink:href="#aa"/><use transform="matrix(0.05,0,0,0.05,9,0)" xlink:href="#W"/><use transform="matrix(0.05,0,0,0.05,19,0)" xlink:href="#aa"/><use transform="matrix(0.05,0,0,0.05,28,0)" xlink:href="#aa"/><use transform="matrix(0.05,0,0,0.05,37,0)" xlink:href="#ad"/><use transform="matrix(0.05,0,0,0.05,40.95,0)" xlink:href="#ag"/><use transform="matrix(0.05,0,0,0.05,50.95,0)" xlink:href="#ae"/><use transform="matrix(0.05,0,0,0.05,60.95,0)" xlink:href="#ab"/><use transform="matrix(0.05,0,0,0.05,65.95,0)" xlink:href="#ac"/></g><path d="M155-56V0h-30v-56H8v-25l114-167h33v167h35v25h-35zm-30-156c-27 46-58 90-88 131h88v-131" id="aC"/><g id="u"><use transform="matrix(0.05,0,0,0.05,0,0)" xlink:href="#au"/><use transform="matrix(0.05,0,0,0.05,9,0)" xlink:href="#X"/><use transform="matrix(0.05,0,0,0.05,19,0)" xlink:href="#Z"/><use transform="matrix(0.05,0,0,0.05,24.95,0)" xlink:href="#ap"/><use transform="matrix(0.05,0,0,0.05,33.95,0)" xlink:href="#av"/><use transform="matrix(0.05,0,0,0.05,43.95,0)" xlink:href="#X"/><use transform="matrix(0.05,0,0,0.05,53.95,0)" xlink:href="#Z"/><use transform="matrix(0.05,0,0,0.05,59.900000000000006,0)" xlink:href="#aj"/><use transform="matrix(0.05,0,0,0.05,65.85000000000001,0)" xlink:href="#aC"/><use transform="matrix(0.05,0,0,0.05,75.85000000000001,0)" xlink:href="#ax"/><use transform="matrix(0.05,0,0,0.05,85.85000000000001,0)" xlink:href="#am"/></g><g id="v"><use transform="matrix(0.05,0,0,0.05,0,0)" xlink:href="#ae"/><use transform="matrix(0.05,0,0,0.05,10,0)" xlink:href="#ah"/><use transform="matrix(0.05,0,0,0.05,20,0)" xlink:href="#ai"/><use transform="matrix(0.05,0,0,0.05,23.95,0)" xlink:href="#ai"/></g><path d="M143 4C61 4 22-44 18-125c-5-107 100-154 193-111 17 8 29 25 37 43l-32 9c-13-25-37-40-76-40-61 0-88 39-88 99 0 61 29 100 91 101 35 0 62-11 79-27v-45h-74v-28h105v86C228-13 192 4 143 4" id="aD"/><g id="w"><use transform="matrix(0.05,0,0,0.05,0,0)" xlink:href="#aD"/><use transform="matrix(0.05,0,0,0.05,14,0)" xlink:href="#ah"/><use transform="matrix(0.05,0,0,0.05,24,0)" xlink:href="#W"/><use transform="matrix(0.05,0,0,0.05,34,0)" xlink:href="#aa"/><use transform="matrix(0.05,0,0,0.05,43,0)" xlink:href="#af"/></g><g id="x"><use transform="matrix(0.05,0,0,0.05,0,0)" xlink:href="#aA"/><use transform="matrix(0.05,0,0,0.05,10,0)" xlink:href="#ah"/><use transform="matrix(0.05,0,0,0.05,20,0)" xlink:href="#W"/><use transform="matrix(0.05,0,0,0.05,30,0)" xlink:href="#aa"/><use transform="matrix(0.05,0,0,0.05,39,0)" xlink:href="#af"/><use transform="matrix(0.05,0,0,0.05,44,0)" xlink:href="#ab"/><use transform="matrix(0.05,0,0,0.05,49,0)" xlink:href="#ac"/></g><path d="M54-142c48-35 137-8 131 61C196 18 31 33 14-55l32-4c7 23 22 37 52 37 35-1 51-22 54-58 4-55-73-65-99-34H22l8-134h141v27H59" id="aE"/><g id="y"><use transform="matrix(0.05,0,0,0.05,0,0)" xlink:href="#au"/><use transform="matrix(0.05,0,0,0.05,9,0)" xlink:href="#X"/><use transform="matrix(0.05,0,0,0.05,19,0)" xlink:href="#Z"/><use transform="matrix(0.05,0,0,0.05,24.95,0)" xlink:href="#ap"/><use transform="matrix(0.05,0,0,0.05,33.95,0)" xlink:href="#av"/><use transform="matrix(0.05,0,0,0.05,43.95,0)" xlink:href="#X"/><use transform="matrix(0.05,0,0,0.05,53.95,0)" xlink:href="#Z"/><use transform="matrix(0.05,0,0,0.05,59.900000000000006,0)" xlink:href="#aj"/><use transform="matrix(0.05,0,0,0.05,65.85000000000001,0)" xlink:href="#aC"/><use transform="matrix(0.05,0,0,0.05,75.85000000000001,0)" xlink:href="#aE"/><use transform="matrix(0.05,0,0,0.05,85.85000000000001,0)" xlink:href="#am"/></g><path d="M206 0h-36l-40-164L89 0H53L-1-190h32L70-26l43-164h34l41 164 42-164h31" id="aF"/><path d="M85-194c31 0 48 13 60 33l-1-100h32l1 261h-30c-2-10 0-23-3-31C134-8 116 4 85 4 32 4 16-35 15-94c0-66 23-100 70-100zm9 24c-40 0-46 34-46 75 0 40 6 74 45 74 42 0 51-32 51-76 0-42-9-74-50-73" id="aG"/><g id="z"><use transform="matrix(0.05,0,0,0.05,0,0)" xlink:href="#V"/><use transform="matrix(0.05,0,0,0.05,10,0)" xlink:href="#X"/><use transform="matrix(0.05,0,0,0.05,20,0)" xlink:href="#aa"/><use transform="matrix(0.05,0,0,0.05,29,0)" xlink:href="#aa"/><use transform="matrix(0.05,0,0,0.05,38,0)" xlink:href="#aF"/><use transform="matrix(0.05,0,0,0.05,50.95,0)" xlink:href="#ag"/><use transform="matrix(0.05,0,0,0.05,60.95,0)" xlink:href="#Z"/><use transform="matrix(0.05,0,0,0.05,66.9,0)" xlink:href="#aG"/></g><g id="A"><use transform="matrix(0.05,0,0,0.05,0,0)" xlink:href="#an"/><use transform="matrix(0.05,0,0,0.05,10,0)" xlink:href="#ad"/><use transform="matrix(0.05,0,0,0.05,13.949999999999998,0)" xlink:href="#Z"/><use transform="matrix(0.05,0,0,0.05,19.9,0)" xlink:href="#af"/><use transform="matrix(0.05,0,0,0.05,24.9,0)" xlink:href="#av"/><use transform="matrix(0.05,0,0,0.05,34.9,0)" xlink:href="#ac"/><use transform="matrix(0.05,0,0,0.05,47.85,0)" xlink:href="#X"/><use transform="matrix(0.05,0,0,0.05,57.85,0)" xlink:href="#af"/><use transform="matrix(0.05,0,0,0.05,62.85,0)" xlink:href="#W"/></g><g id="B"><use transform="matrix(0.05,0,0,0.05,0,0)" xlink:href="#aG"/><use transform="matrix(0.05,0,0,0.05,10,0)" xlink:href="#X"/><use transform="matrix(0.05,0,0,0.05,20,0)" xlink:href="#af"/><use transform="matrix(0.05,0,0,0.05,25,0)" xlink:href="#W"/></g><g id="C"><use transform="matrix(0.05,0,0,0.05,0,0)" xlink:href="#V"/><use transform="matrix(0.05,0,0,0.05,10,0)" xlink:href="#av"/><use transform="matrix(0.05,0,0,0.05,20,0)" xlink:href="#ag"/><use transform="matrix(0.05,0,0,0.05,30,0)" xlink:href="#ae"/><use transform="matrix(0.05,0,0,0.05,40,0)" xlink:href="#W"/><use transform="matrix(0.05,0,0,0.05,50,0)" xlink:href="#as"/><use transform="matrix(0.05,0,0,0.05,62.95,0)" xlink:href="#ah"/><use transform="matrix(0.05,0,0,0.05,72.95,0)" xlink:href="#at"/><use transform="matrix(0.05,0,0,0.05,87.9,0)" xlink:href="#an"/><use transform="matrix(0.05,0,0,0.05,97.9,0)" xlink:href="#W"/><use transform="matrix(0.05,0,0,0.05,107.9,0)" xlink:href="#Z"/></g><g id="D"><use transform="matrix(0.05,0,0,0.05,0,0)" xlink:href="#U"/><use transform="matrix(0.05,0,0,0.05,12,0)" xlink:href="#ah"/><use transform="matrix(0.05,0,0,0.05,22,0)" xlink:href="#an"/><use transform="matrix(0.05,0,0,0.05,32,0)" xlink:href="#ao"/><use transform="matrix(0.05,0,0,0.05,35.95,0)" xlink:href="#W"/><use transform="matrix(0.05,0,0,0.05,45.95,0)" xlink:href="#ap"/><use transform="matrix(0.05,0,0,0.05,54.95,0)" xlink:href="#af"/></g><g id="E"><use transform="matrix(0.05,0,0,0.05,0,0)" xlink:href="#aa"/><use transform="matrix(0.05,0,0,0.05,9,0)" xlink:href="#ah"/><use transform="matrix(0.05,0,0,0.05,19,0)" xlink:href="#an"/><use transform="matrix(0.05,0,0,0.05,29,0)" xlink:href="#ao"/><use transform="matrix(0.05,0,0,0.05,32.95,0)" xlink:href="#W"/><use transform="matrix(0.05,0,0,0.05,42.95,0)" xlink:href="#ap"/><use transform="matrix(0.05,0,0,0.05,51.95,0)" xlink:href="#af"/><use transform="matrix(0.05,0,0,0.05,56.95,0)" xlink:href="#az"/><use transform="matrix(0.05,0,0,0.05,69.9,0)" xlink:href="#X"/><use transform="matrix(0.05,0,0,0.05,79.9,0)" xlink:href="#af"/><use transform="matrix(0.05,0,0,0.05,84.9,0)" xlink:href="#W"/><use transform="matrix(0.05,0,0,0.05,94.9,0)" xlink:href="#aA"/><use transform="matrix(0.05,0,0,0.05,104.9,0)" xlink:href="#ag"/><use transform="matrix(0.05,0,0,0.05,114.9,0)" xlink:href="#Z"/><use transform="matrix(0.05,0,0,0.05,120.85000000000001,0)" xlink:href="#aB"/><use transform="matrix(0.05,0,0,0.05,129.85000000000002,0)" xlink:href="#ab"/><use transform="matrix(0.05,0,0,0.05,134.85000000000002,0)" xlink:href="#ac"/></g><g id="F"><use transform="matrix(0.05,0,0,0.05,0,0)" xlink:href="#ay"/><use transform="matrix(0.05,0,0,0.05,12.950000000000001,0)" xlink:href="#ag"/><use transform="matrix(0.05,0,0,0.05,22.950000000000003,0)" xlink:href="#ag"/><use transform="matrix(0.05,0,0,0.05,32.95,0)" xlink:href="#at"/><use transform="matrix(0.05,0,0,0.05,47.900000000000006,0)" xlink:href="#az"/><use transform="matrix(0.05,0,0,0.05,60.85,0)" xlink:href="#X"/><use transform="matrix(0.05,0,0,0.05,70.85000000000001,0)" xlink:href="#af"/><use transform="matrix(0.05,0,0,0.05,75.85000000000001,0)" xlink:href="#W"/><use transform="matrix(0.05,0,0,0.05,85.85000000000001,0)" xlink:href="#aA"/><use transform="matrix(0.05,0,0,0.05,95.85000000000001,0)" xlink:href="#ag"/><use transform="matrix(0.05,0,0,0.05,105.85000000000001,0)" xlink:href="#Z"/><use transform="matrix(0.05,0,0,0.05,111.80000000000001,0)" xlink:href="#aB"/></g><g id="G"><use transform="matrix(0.05,0,0,0.05,0,0)" xlink:href="#aG"/><use transform="matrix(0.05,0,0,0.05,10,0)" xlink:href="#W"/><use transform="matrix(0.05,0,0,0.05,20,0)" xlink:href="#aa"/><use transform="matrix(0.05,0,0,0.05,29,0)" xlink:href="#ap"/><use transform="matrix(0.05,0,0,0.05,38,0)" xlink:href="#Z"/><use transform="matrix(0.05,0,0,0.05,43.95,0)" xlink:href="#ad"/><use transform="matrix(0.05,0,0,0.05,47.900000000000006,0)" xlink:href="#V"/><use transform="matrix(0.05,0,0,0.05,57.900000000000006,0)" xlink:href="#af"/><use transform="matrix(0.05,0,0,0.05,62.900000000000006,0)" xlink:href="#ad"/><use transform="matrix(0.05,0,0,0.05,66.85000000000001,0)" xlink:href="#ag"/><use transform="matrix(0.05,0,0,0.05,76.85000000000001,0)" xlink:href="#ae"/></g><g id="H"><use transform="matrix(0.05,0,0,0.05,0,0)" xlink:href="#au"/><use transform="matrix(0.05,0,0,0.05,9,0)" xlink:href="#X"/><use transform="matrix(0.05,0,0,0.05,19,0)" xlink:href="#Z"/><use transform="matrix(0.05,0,0,0.05,24.95,0)" xlink:href="#ap"/><use transform="matrix(0.05,0,0,0.05,33.95,0)" xlink:href="#av"/><use transform="matrix(0.05,0,0,0.05,43.95,0)" xlink:href="#X"/><use transform="matrix(0.05,0,0,0.05,53.95,0)" xlink:href="#Z"/><use transform="matrix(0.05,0,0,0.05,59.900000000000006,0)" xlink:href="#aj"/><use transform="matrix(0.05,0,0,0.05,65.85000000000001,0)" xlink:href="#aw"/><use transform="matrix(0.05,0,0,0.05,75.85000000000001,0)" xlink:href="#ax"/><use transform="matrix(0.05,0,0,0.05,85.85000000000001,0)" xlink:href="#am"/></g><path d="M141 0L90-78 38 0H4l68-98-65-92h35l48 74 47-74h35l-64 92 68 98h-35" id="aH"/><g id="I"><use transform="matrix(0.05,0,0,0.05,0,0)" xlink:href="#at"/><use transform="matrix(0.05,0,0,0.05,14.950000000000001,0)" xlink:href="#X"/><use transform="matrix(0.05,0,0,0.05,24.950000000000003,0)" xlink:href="#aH"/><use transform="matrix(0.05,0,0,0.05,33.95,0)" xlink:href="#az"/><use transform="matrix(0.05,0,0,0.05,46.900000000000006,0)" xlink:href="#X"/><use transform="matrix(0.05,0,0,0.05,56.900000000000006,0)" xlink:href="#V"/><use transform="matrix(0.05,0,0,0.05,66.9,0)" xlink:href="#X"/><use transform="matrix(0.05,0,0,0.05,76.9,0)" xlink:href="#ap"/><use transform="matrix(0.05,0,0,0.05,85.9,0)" xlink:href="#ad"/><use transform="matrix(0.05,0,0,0.05,89.85000000000001,0)" xlink:href="#af"/><use transform="matrix(0.05,0,0,0.05,94.85000000000001,0)" xlink:href="#aB"/></g><g id="J"><use transform="matrix(0.05,0,0,0.05,0,0)" xlink:href="#U"/><use transform="matrix(0.05,0,0,0.05,12,0)" xlink:href="#ah"/><use transform="matrix(0.05,0,0,0.05,22,0)" xlink:href="#an"/><use transform="matrix(0.05,0,0,0.05,32,0)" xlink:href="#ao"/><use transform="matrix(0.05,0,0,0.05,35.95,0)" xlink:href="#W"/><use transform="matrix(0.05,0,0,0.05,45.95,0)" xlink:href="#ap"/><use transform="matrix(0.05,0,0,0.05,54.95,0)" xlink:href="#af"/><use transform="matrix(0.05,0,0,0.05,59.95,0)" xlink:href="#az"/><use transform="matrix(0.05,0,0,0.05,72.9,0)" xlink:href="#X"/><use transform="matrix(0.05,0,0,0.05,82.9,0)" xlink:href="#af"/><use transform="matrix(0.05,0,0,0.05,87.9,0)" xlink:href="#W"/><use transform="matrix(0.05,0,0,0.05,97.9,0)" xlink:href="#aA"/><use transform="matrix(0.05,0,0,0.05,107.9,0)" xlink:href="#ag"/><use transform="matrix(0.05,0,0,0.05,117.9,0)" xlink:href="#Z"/><use transform="matrix(0.05,0,0,0.05,123.85000000000001,0)" xlink:href="#aB"/></g><path d="M127-220V0H93v-220H8v-28h204v28h-85" id="aI"/><g id="K"><use transform="matrix(0.05,0,0,0.05,0,0)" xlink:href="#aI"/><use transform="matrix(0.05,0,0,0.05,10.3,0)" xlink:href="#ad"/><use transform="matrix(0.05,0,0,0.05,14.25,0)" xlink:href="#at"/><use transform="matrix(0.05,0,0,0.05,29.200000000000003,0)" xlink:href="#W"/><use transform="matrix(0.05,0,0,0.05,39.2,0)" xlink:href="#U"/><use transform="matrix(0.05,0,0,0.05,51.2,0)" xlink:href="#ai"/><use transform="matrix(0.05,0,0,0.05,55.150000000000006,0)" xlink:href="#ag"/><use transform="matrix(0.05,0,0,0.05,65.15,0)" xlink:href="#af"/></g><g id="L"><use transform="matrix(0.05,0,0,0.05,0,0)" xlink:href="#aa"/><use transform="matrix(0.05,0,0,0.05,9,0)" xlink:href="#af"/><use transform="matrix(0.05,0,0,0.05,14,0)" xlink:href="#X"/><use transform="matrix(0.05,0,0,0.05,24,0)" xlink:href="#Z"/><use transform="matrix(0.05,0,0,0.05,29.950000000000003,0)" xlink:href="#af"/><use transform="matrix(0.05,0,0,0.05,34.95,0)" xlink:href="#aI"/><use transform="matrix(0.05,0,0,0.05,45.25000000000001,0)" xlink:href="#ad"/><use transform="matrix(0.05,0,0,0.05,49.20000000000001,0)" xlink:href="#at"/><use transform="matrix(0.05,0,0,0.05,64.15,0)" xlink:href="#W"/></g><g id="M"><use transform="matrix(0.05,0,0,0.05,0,0)" xlink:href="#af"/><use transform="matrix(0.05,0,0,0.05,5,0)" xlink:href="#ad"/><use transform="matrix(0.05,0,0,0.05,8.95,0)" xlink:href="#at"/><use transform="matrix(0.05,0,0,0.05,23.9,0)" xlink:href="#W"/></g><g id="N"><use transform="matrix(0.05,0,0,0.05,0,0)" xlink:href="#aj"/><use transform="matrix(0.05,0,0,0.05,5.95,0)" xlink:href="#ap"/><use transform="matrix(0.05,0,0,0.05,14.949999999999998,0)" xlink:href="#ag"/><use transform="matrix(0.05,0,0,0.05,24.95,0)" xlink:href="#at"/><use transform="matrix(0.05,0,0,0.05,39.9,0)" xlink:href="#V"/><use transform="matrix(0.05,0,0,0.05,49.9,0)" xlink:href="#ag"/><use transform="matrix(0.05,0,0,0.05,59.900000000000006,0)" xlink:href="#aa"/><use transform="matrix(0.05,0,0,0.05,68.9,0)" xlink:href="#W"/><use transform="matrix(0.05,0,0,0.05,78.9,0)" xlink:href="#aG"/></g><g id="O"><use transform="matrix(0.05,0,0,0.05,0,0)" xlink:href="#ak"/><use transform="matrix(0.05,0,0,0.05,12,0)" xlink:href="#al"/><use transform="matrix(0.05,0,0,0.05,24,0)" xlink:href="#am"/></g><g id="P"><use transform="matrix(0.05,0,0,0.05,0,0)" xlink:href="#W"/><use transform="matrix(0.05,0,0,0.05,10,0)" xlink:href="#ae"/><use transform="matrix(0.05,0,0,0.05,20,0)" xlink:href="#aG"/><use transform="matrix(0.05,0,0,0.05,30,0)" xlink:href="#aI"/><use transform="matrix(0.05,0,0,0.05,40.300000000000004,0)" xlink:href="#ad"/><use transform="matrix(0.05,0,0,0.05,44.25000000000001,0)" xlink:href="#at"/><use transform="matrix(0.05,0,0,0.05,59.20000000000002,0)" xlink:href="#W"/></g><g id="Q"><use transform="matrix(0.05,0,0,0.05,0,0)" xlink:href="#aa"/><use transform="matrix(0.05,0,0,0.05,9,0)" xlink:href="#ai"/><use transform="matrix(0.05,0,0,0.05,12.949999999999998,0)" xlink:href="#ag"/><use transform="matrix(0.05,0,0,0.05,22.95,0)" xlink:href="#af"/><use transform="matrix(0.05,0,0,0.05,27.950000000000003,0)" xlink:href="#ac"/><use transform="matrix(0.05,0,0,0.05,40.9,0)" xlink:href="#X"/><use transform="matrix(0.05,0,0,0.05,50.9,0)" xlink:href="#af"/><use transform="matrix(0.05,0,0,0.05,55.900000000000006,0)" xlink:href="#W"/></g><g id="R"><use transform="matrix(0.05,0,0,0.05,0,0)" xlink:href="#aD"/><use transform="matrix(0.05,0,0,0.05,14,0)" xlink:href="#ah"/><use transform="matrix(0.05,0,0,0.05,24,0)" xlink:href="#W"/><use transform="matrix(0.05,0,0,0.05,34,0)" xlink:href="#aa"/><use transform="matrix(0.05,0,0,0.05,43,0)" xlink:href="#af"/><use transform="matrix(0.05,0,0,0.05,48,0)" xlink:href="#aI"/><use transform="matrix(0.05,0,0,0.05,58.300000000000004,0)" xlink:href="#ad"/><use transform="matrix(0.05,0,0,0.05,62.25,0)" xlink:href="#at"/><use transform="matrix(0.05,0,0,0.05,77.2,0)" xlink:href="#W"/><use transform="matrix(0.05,0,0,0.05,87.2,0)" xlink:href="#U"/><use transform="matrix(0.05,0,0,0.05,99.2,0)" xlink:href="#ai"/><use transform="matrix(0.05,0,0,0.05,103.15,0)" xlink:href="#ag"/><use transform="matrix(0.05,0,0,0.05,113.15,0)" xlink:href="#af"/></g><g id="S"><use transform="matrix(0.05,0,0,0.05,0,0)" xlink:href="#aA"/><use transform="matrix(0.05,0,0,0.05,10,0)" xlink:href="#ah"/><use transform="matrix(0.05,0,0,0.05,20,0)" xlink:href="#W"/><use transform="matrix(0.05,0,0,0.05,30,0)" xlink:href="#aa"/><use transform="matrix(0.05,0,0,0.05,39,0)" xlink:href="#af"/><use transform="matrix(0.05,0,0,0.05,44,0)" xlink:href="#aI"/><use transform="matrix(0.05,0,0,0.05,54.300000000000004,0)" xlink:href="#ad"/><use transform="matrix(0.05,0,0,0.05,58.25,0)" xlink:href="#at"/><use transform="matrix(0.05,0,0,0.05,73.2,0)" xlink:href="#W"/><use transform="matrix(0.05,0,0,0.05,83.2,0)" xlink:href="#U"/><use transform="matrix(0.05,0,0,0.05,95.2,0)" xlink:href="#ai"/><use transform="matrix(0.05,0,0,0.05,99.15,0)" xlink:href="#ag"/><use transform="matrix(0.05,0,0,0.05,109.15,0)" xlink:href="#af"/><use transform="matrix(0.05,0,0,0.05,114.15,0)" xlink:href="#ab"/><use transform="matrix(0.05,0,0,0.05,119.15,0)" xlink:href="#ac"/></g><g id="T"><use transform="matrix(0.05,0,0,0.05,0,0)" xlink:href="#aq"/><use transform="matrix(0.05,0,0,0.05,10.950000000000001,0)" xlink:href="#al"/><use transform="matrix(0.05,0,0,0.05,22.950000000000003,0)" xlink:href="#am"/></g></defs></g></svg>